<svg xmlns="http://www.w3.org/2000/svg" viewBox="0 0 32 32" fill="none">
  <defs>
    <linearGradient id="shieldGrad" x1="0" y1="0" x2="1" y2="1">
      <stop offset="0%" stop-color="#1e40af"/>
      <stop offset="100%" stop-color="#4f46e5"/>
    </linearGradient>
  </defs>
  <!-- Shield body -->
  <path d="M16 2L4 7v9c0 6.6 5.1 12.8 12 14 6.9-1.2 12-7.4 12-14V7L16 2z" fill="url(#shieldGrad)"/>
  <!-- City skyline silhouette inside shield -->
  <g fill="white" opacity="0.9">
    <!-- Buildings -->
    <rect x="7" y="16" width="3" height="6" rx="0.3"/>
    <rect x="8" y="13" width="1.5" height="3" rx="0.3"/>
    <rect x="11" y="14" width="2.5" height="8" rx="0.3"/>
    <rect x="14.5" y="11" width="3" height="11" rx="0.3"/>
    <rect x="15.5" y="9" width="1" height="2" rx="0.3"/>
    <rect x="18.5" y="14" width="2.5" height="8" rx="0.3"/>
    <rect x="22" y="15" width="3" height="7" rx="0.3"/>
    <rect x="22.8" y="13" width="1.5" height="2" rx="0.3"/>
  </g>
</svg>
